<svg id="visual" viewBox="0 0 900 600" width="900" height="600" xmlns="http://www.w3.org/2000/svg" xmlns:xlink="http://www.w3.org/1999/xlink" version="1.1"><rect x="0" y="0" width="900" height="600" fill="#001220"></rect><defs><linearGradient id="grad1_0" x1="33.3%" y1="100%" x2="100%" y2="0%"><stop offset="20%" stop-color="#001220" stop-opacity="1"></stop><stop offset="80%" stop-color="#001220" stop-opacity="1"></stop></linearGradient></defs><defs><linearGradient id="grad2_0" x1="0%" y1="100%" x2="66.7%" y2="0%"><stop offset="20%" stop-color="#001220" stop-opacity="1"></stop><stop offset="80%" stop-color="#001220" stop-opacity="1"></stop></linearGradient></defs><g transform="translate(900, 600)"><path d="M-351.5 0C-304.8 -33.5 -258.1 -67 -232.8 -96.4C-207.5 -125.9 -203.7 -151.3 -193.7 -193.7C-183.8 -236.2 -167.8 -295.6 -134.5 -324.8C-101.2 -353.9 -50.6 -352.7 0 -351.5L0 0Z" fill="#53b698"></path></g><g transform="translate(0, 0)"><path d="M351.5 0C348.6 52.6 345.7 105.3 311.3 129C277 152.7 211.3 147.4 181.7 181.7C152.2 216 158.8 289.9 134.5 324.8C110.3 359.7 55.1 355.6 0 351.5L0 0Z" fill="#53b698"></path></g></svg>