<svg id="visual" viewBox="0 0 900 600" width="900" height="600" xmlns="http://www.w3.org/2000/svg" xmlns:xlink="http://www.w3.org/1999/xlink" version="1.1"><rect x="0" y="0" width="900" height="600" fill="#001220"></rect><defs><linearGradient id="grad1_0" x1="33.3%" y1="0%" x2="100%" y2="100%"><stop offset="20%" stop-color="#001220" stop-opacity="1"></stop><stop offset="80%" stop-color="#001220" stop-opacity="1"></stop></linearGradient></defs><defs><linearGradient id="grad2_0" x1="0%" y1="0%" x2="66.7%" y2="100%"><stop offset="20%" stop-color="#001220" stop-opacity="1"></stop><stop offset="80%" stop-color="#001220" stop-opacity="1"></stop></linearGradient></defs><g transform="translate(900, 0)"><path d="M0 351.5C-39.6 328.7 -79.3 305.8 -119.8 289.2C-160.3 272.6 -201.7 262.3 -238.3 238.3C-274.9 214.3 -306.7 176.5 -324.8 134.5C-342.9 92.5 -347.2 46.3 -351.5 0L0 0Z" fill="#53b698"></path></g><g transform="translate(0, 600)"><path d="M0 -351.5C30.6 -312.2 61.3 -272.8 108.7 -262.4C156.1 -251.9 220.2 -270.4 248.6 -248.6C277 -226.7 269.7 -164.5 280.9 -116.3C292.1 -68.2 321.8 -34.1 351.5 0L0 0Z" fill="#53b698"></path></g></svg>