<svg id="visual" viewBox="0 0 960 100" width="960" height="100" xmlns="http://www.w3.org/2000/svg" xmlns:xlink="http://www.w3.org/1999/xlink" version="1.1"><rect x="0" y="0" width="960" height="100" fill="#81A097"></rect><path d="M0 78L11.5 78C23 78 46 78 68.8 72C91.7 66 114.3 54 137.2 51.7C160 49.3 183 56.7 205.8 58.2C228.7 59.7 251.3 55.3 274.2 51.5C297 47.7 320 44.3 342.8 48C365.7 51.7 388.3 62.3 411.2 60.5C434 58.7 457 44.3 480 38.5C503 32.7 526 35.3 548.8 43.7C571.7 52 594.3 66 617.2 64.2C640 62.3 663 44.7 685.8 35.5C708.7 26.3 731.3 25.7 754.2 25.7C777 25.7 800 26.3 822.8 27.3C845.7 28.3 868.3 29.7 891.2 35.5C914 41.3 937 51.7 948.5 56.8L960 62L960 101L948.5 101C937 101 914 101 891.2 101C868.3 101 845.7 101 822.8 101C800 101 777 101 754.2 101C731.3 101 708.7 101 685.8 101C663 101 640 101 617.2 101C594.3 101 571.7 101 548.8 101C526 101 503 101 480 101C457 101 434 101 411.2 101C388.3 101 365.7 101 342.8 101C320 101 297 101 274.2 101C251.3 101 228.7 101 205.8 101C183 101 160 101 137.2 101C114.3 101 91.7 101 68.8 101C46 101 23 101 11.5 101L0 101Z" fill="#c3cad2" stroke-linecap="round" stroke-linejoin="miter"></path></svg>