<svg id="visual" viewBox="0 0 900 200" width="900" height="200" xmlns="http://www.w3.org/2000/svg" xmlns:xlink="http://www.w3.org/1999/xlink" version="1.1"><path d="M0 25L21.5 28.7C43 32.3 86 39.7 128.8 46.3C171.7 53 214.3 59 257.2 56.7C300 54.3 343 43.7 385.8 42.7C428.7 41.7 471.3 50.3 514.2 49C557 47.7 600 36.3 642.8 36C685.7 35.7 728.3 46.3 771.2 54.3C814 62.3 857 67.7 878.5 70.3L900 73L900 0L878.5 0C857 0 814 0 771.2 0C728.3 0 685.7 0 642.8 0C600 0 557 0 514.2 0C471.3 0 428.7 0 385.8 0C343 0 300 0 257.2 0C214.3 0 171.7 0 128.8 0C86 0 43 0 21.5 0L0 0Z" fill="#1f2926"></path><path d="M0 69L21.5 70C43 71 86 73 128.8 74.7C171.7 76.3 214.3 77.7 257.2 78C300 78.3 343 77.7 385.8 84.3C428.7 91 471.3 105 514.2 97.7C557 90.3 600 61.7 642.8 55.7C685.7 49.7 728.3 66.3 771.2 75.7C814 85 857 87 878.5 88L900 89L900 71L878.5 68.3C857 65.7 814 60.3 771.2 52.3C728.3 44.3 685.7 33.7 642.8 34C600 34.3 557 45.7 514.2 47C471.3 48.3 428.7 39.7 385.8 40.7C343 41.7 300 52.3 257.2 54.7C214.3 57 171.7 51 128.8 44.3C86 37.7 43 30.3 21.5 26.7L0 23Z" fill="#222d2a"></path><path d="M0 73L21.5 77.7C43 82.3 86 91.7 128.8 93.7C171.7 95.7 214.3 90.3 257.2 88.3C300 86.3 343 87.7 385.8 94.3C428.7 101 471.3 113 514.2 105.7C557 98.3 600 71.7 642.8 66.3C685.7 61 728.3 77 771.2 85C814 93 857 93 878.5 93L900 93L900 87L878.5 86C857 85 814 83 771.2 73.7C728.3 64.3 685.7 47.7 642.8 53.7C600 59.7 557 88.3 514.2 95.7C471.3 103 428.7 89 385.8 82.3C343 75.7 300 76.3 257.2 76C214.3 75.7 171.7 74.3 128.8 72.7C86 71 43 69 21.5 68L0 67Z" fill="#25322e"></path><path d="M0 99L21.5 102.7C43 106.3 86 113.7 128.8 113C171.7 112.3 214.3 103.7 257.2 99.7C300 95.7 343 96.3 385.8 103.7C428.7 111 471.3 125 514.2 121.7C557 118.3 600 97.7 642.8 95.7C685.7 93.7 728.3 110.3 771.2 118.3C814 126.3 857 125.7 878.5 125.3L900 125L900 91L878.5 91C857 91 814 91 771.2 83C728.3 75 685.7 59 642.8 64.3C600 69.7 557 96.3 514.2 103.7C471.3 111 428.7 99 385.8 92.3C343 85.7 300 84.3 257.2 86.3C214.3 88.3 171.7 93.7 128.8 91.7C86 89.7 43 80.3 21.5 75.7L0 71Z" fill="#283632"></path><path d="M0 113L21.5 119C43 125 86 137 128.8 142C171.7 147 214.3 145 257.2 143.3C300 141.7 343 140.3 385.8 142.3C428.7 144.3 471.3 149.7 514.2 145.7C557 141.7 600 128.3 642.8 124.7C685.7 121 728.3 127 771.2 135C814 143 857 153 878.5 158L900 163L900 123L878.5 123.3C857 123.7 814 124.3 771.2 116.3C728.3 108.3 685.7 91.7 642.8 93.7C600 95.7 557 116.3 514.2 119.7C471.3 123 428.7 109 385.8 101.7C343 94.3 300 93.7 257.2 97.7C214.3 101.7 171.7 110.3 128.8 111C86 111.7 43 104.3 21.5 100.7L0 97Z" fill="#33423e"></path><path d="M0 127L21.5 131.3C43 135.7 86 144.3 128.8 148C171.7 151.7 214.3 150.3 257.2 149.7C300 149 343 149 385.8 151C428.7 153 471.3 157 514.2 152.7C557 148.3 600 135.7 642.8 134C685.7 132.3 728.3 141.7 771.2 149.3C814 157 857 163 878.5 166L900 169L900 161L878.5 156C857 151 814 141 771.2 133C728.3 125 685.7 119 642.8 122.7C600 126.3 557 139.7 514.2 143.7C471.3 147.7 428.7 142.3 385.8 140.3C343 138.3 300 139.7 257.2 141.3C214.3 143 171.7 145 128.8 140C86 135 43 123 21.5 117L0 111Z" fill="#3e4f4a"></path><path d="M0 201L21.5 201C43 201 86 201 128.8 201C171.7 201 214.3 201 257.2 201C300 201 343 201 385.8 201C428.7 201 471.3 201 514.2 201C557 201 600 201 642.8 201C685.7 201 728.3 201 771.2 201C814 201 857 201 878.5 201L900 201L900 167L878.5 164C857 161 814 155 771.2 147.3C728.3 139.7 685.7 130.3 642.8 132C600 133.7 557 146.3 514.2 150.7C471.3 155 428.7 151 385.8 149C343 147 300 147 257.2 147.7C214.3 148.3 171.7 149.7 128.8 146C86 142.3 43 133.7 21.5 129.3L0 125Z" fill="#495c57"></path></svg>