<svg id="visual" viewBox="0 0 900 200" width="900" height="200" xmlns="http://www.w3.org/2000/svg" xmlns:xlink="http://www.w3.org/1999/xlink" version="1.1"><rect x="0" y="0" width="900" height="200" fill="#000000"></rect><path d="M0 177L75 177L75 177L150 177L150 177L225 177L225 177L300 177L300 177L375 177L375 177L450 177L450 177L525 177L525 177L600 177L600 177L675 177L675 177L750 177L750 177L825 177L825 177L900 177L900 177L900 0L900 0L825 0L825 0L750 0L750 0L675 0L675 0L600 0L600 0L525 0L525 0L450 0L450 0L375 0L375 0L300 0L300 0L225 0L225 0L150 0L150 0L75 0L75 0L0 0Z" fill="#5a8179"></path><path d="M0 155L75 155L75 155L150 155L150 155L225 155L225 155L300 155L300 155L375 155L375 155L450 155L450 155L525 155L525 155L600 155L600 155L675 155L675 155L750 155L750 155L825 155L825 155L900 155L900 155L900 0L900 0L825 0L825 0L750 0L750 0L675 0L675 0L600 0L600 0L525 0L525 0L450 0L450 0L375 0L375 0L300 0L300 0L225 0L225 0L150 0L150 0L75 0L75 0L0 0Z" fill="#547871"></path><path d="M0 132L75 132L75 132L150 132L150 132L225 132L225 132L300 132L300 132L375 132L375 132L450 132L450 132L525 132L525 132L600 132L600 132L675 132L675 132L750 132L750 132L825 132L825 132L900 132L900 132L900 0L900 0L825 0L825 0L750 0L750 0L675 0L675 0L600 0L600 0L525 0L525 0L450 0L450 0L375 0L375 0L300 0L300 0L225 0L225 0L150 0L150 0L75 0L75 0L0 0Z" fill="#4d6f68"></path><path d="M0 110L75 110L75 110L150 110L150 110L225 110L225 110L300 110L300 110L375 110L375 110L450 110L450 110L525 110L525 110L600 110L600 110L675 110L675 110L750 110L750 110L825 110L825 110L900 110L900 110L900 0L900 0L825 0L825 0L750 0L750 0L675 0L675 0L600 0L600 0L525 0L525 0L450 0L450 0L375 0L375 0L300 0L300 0L225 0L225 0L150 0L150 0L75 0L75 0L0 0Z" fill="#476660"></path><path d="M0 88L75 88L75 88L150 88L150 88L225 88L225 88L300 88L300 88L375 88L375 88L450 88L450 88L525 88L525 88L600 88L600 88L675 88L675 88L750 88L750 88L825 88L825 88L900 88L900 88L900 0L900 0L825 0L825 0L750 0L750 0L675 0L675 0L600 0L600 0L525 0L525 0L450 0L450 0L375 0L375 0L300 0L300 0L225 0L225 0L150 0L150 0L75 0L75 0L0 0Z" fill="#415e58"></path><path d="M0 66L75 66L75 66L150 66L150 66L225 66L225 66L300 66L300 66L375 66L375 66L450 66L450 66L525 66L525 66L600 66L600 66L675 66L675 66L750 66L750 66L825 66L825 66L900 66L900 66L900 0L900 0L825 0L825 0L750 0L750 0L675 0L675 0L600 0L600 0L525 0L525 0L450 0L450 0L375 0L375 0L300 0L300 0L225 0L225 0L150 0L150 0L75 0L75 0L0 0Z" fill="#3b5550"></path><path d="M0 43L75 43L75 43L150 43L150 43L225 43L225 43L300 43L300 43L375 43L375 43L450 43L450 43L525 43L525 43L600 43L600 43L675 43L675 43L750 43L750 43L825 43L825 43L900 43L900 43L900 0L900 0L825 0L825 0L750 0L750 0L675 0L675 0L600 0L600 0L525 0L525 0L450 0L450 0L375 0L375 0L300 0L300 0L225 0L225 0L150 0L150 0L75 0L75 0L0 0Z" fill="#354c48"></path><path d="M0 21L75 21L75 21L150 21L150 21L225 21L225 21L300 21L300 21L375 21L375 21L450 21L450 21L525 21L525 21L600 21L600 21L675 21L675 21L750 21L750 21L825 21L825 21L900 21L900 21L900 0L900 0L825 0L825 0L750 0L750 0L675 0L675 0L600 0L600 0L525 0L525 0L450 0L450 0L375 0L375 0L300 0L300 0L225 0L225 0L150 0L150 0L75 0L75 0L0 0Z" fill="#2f4440"></path></svg>