<svg id="visual" viewBox="0 0 960 100" width="960" height="100" xmlns="http://www.w3.org/2000/svg" xmlns:xlink="http://www.w3.org/1999/xlink" version="1.1"><rect x="0" y="0" width="960" height="100" fill="#81A097"></rect><path d="M0 70L11.5 68.3C23 66.7 46 63.3 68.8 61C91.7 58.7 114.3 57.3 137.2 54.3C160 51.3 183 46.7 205.8 48.3C228.7 50 251.3 58 274.2 61.2C297 64.3 320 62.7 342.8 60.8C365.7 59 388.3 57 411.2 54.3C434 51.7 457 48.3 480 45.2C503 42 526 39 548.8 40C571.7 41 594.3 46 617.2 47.7C640 49.3 663 47.7 685.8 50.7C708.7 53.7 731.3 61.3 754.2 63.3C777 65.3 800 61.7 822.8 62C845.7 62.3 868.3 66.7 891.2 67C914 67.3 937 63.7 948.5 61.8L960 60L960 101L948.5 101C937 101 914 101 891.2 101C868.3 101 845.7 101 822.8 101C800 101 777 101 754.2 101C731.3 101 708.7 101 685.8 101C663 101 640 101 617.2 101C594.3 101 571.7 101 548.8 101C526 101 503 101 480 101C457 101 434 101 411.2 101C388.3 101 365.7 101 342.8 101C320 101 297 101 274.2 101C251.3 101 228.7 101 205.8 101C183 101 160 101 137.2 101C114.3 101 91.7 101 68.8 101C46 101 23 101 11.5 101L0 101Z" fill="#c3cad2" stroke-linecap="round" stroke-linejoin="miter"></path></svg>