<svg id="visual" viewBox="0 0 900 200" width="900" height="200" xmlns="http://www.w3.org/2000/svg" xmlns:xlink="http://www.w3.org/1999/xlink" version="1.1"><rect x="0" y="0" width="900" height="200" fill="#c0e1da"></rect><path d="M314 0L565 0L565 10L673 10L673 19L579 19L579 29L805 29L805 38L610 38L610 48L667 48L667 57L836 57L836 67L788 67L788 76L783 76L783 86L321 86L321 95L623 95L623 105L477 105L477 114L390 114L390 124L421 124L421 133L591 133L591 143L836 143L836 152L337 152L337 162L825 162L825 171L394 171L394 181L598 181L598 190L410 190L410 200L0 200L0 190L0 190L0 181L0 181L0 171L0 171L0 162L0 162L0 152L0 152L0 143L0 143L0 133L0 133L0 124L0 124L0 114L0 114L0 105L0 105L0 95L0 95L0 86L0 86L0 76L0 76L0 67L0 67L0 57L0 57L0 48L0 48L0 38L0 38L0 29L0 29L0 19L0 19L0 10L0 10L0 0L0 0Z" fill="#7dc2b3"></path><path d="M541 0L763 0L763 10L337 10L337 19L287 19L287 29L443 29L443 38L698 38L698 48L456 48L456 57L644 57L644 67L374 67L374 76L638 76L638 86L316 86L316 95L752 95L752 105L511 105L511 114L645 114L645 124L467 124L467 133L598 133L598 143L604 143L604 152L486 152L486 162L363 162L363 171L301 171L301 181L566 181L566 190L377 190L377 200L0 200L0 190L0 190L0 181L0 181L0 171L0 171L0 162L0 162L0 152L0 152L0 143L0 143L0 133L0 133L0 124L0 124L0 114L0 114L0 105L0 105L0 95L0 95L0 86L0 86L0 76L0 76L0 67L0 67L0 57L0 57L0 48L0 48L0 38L0 38L0 29L0 29L0 19L0 19L0 10L0 10L0 0L0 0Z" fill="#76baab"></path><path d="M613 0L637 0L637 10L743 10L743 19L491 19L491 29L603 29L603 38L714 38L714 48L408 48L408 57L328 57L328 67L274 67L274 76L304 76L304 86L617 86L617 95L436 95L436 105L268 105L268 114L363 114L363 124L419 124L419 133L447 133L447 143L477 143L477 152L315 152L315 162L680 162L680 171L690 171L690 181L393 181L393 190L281 190L281 200L0 200L0 190L0 190L0 181L0 181L0 171L0 171L0 162L0 162L0 152L0 152L0 143L0 143L0 133L0 133L0 124L0 124L0 114L0 114L0 105L0 105L0 95L0 95L0 86L0 86L0 76L0 76L0 67L0 67L0 57L0 57L0 48L0 48L0 38L0 38L0 29L0 29L0 19L0 19L0 10L0 10L0 0L0 0Z" fill="#6fb2a3"></path><path d="M352 0L512 0L512 10L514 10L514 19L572 19L572 29L545 29L545 38L483 38L483 48L259 48L259 57L636 57L636 67L553 67L553 76L648 76L648 86L342 86L342 95L542 95L542 105L361 105L361 114L534 114L534 124L397 124L397 133L508 133L508 143L445 143L445 152L498 152L498 162L363 162L363 171L260 171L260 181L458 181L458 190L586 190L586 200L0 200L0 190L0 190L0 181L0 181L0 171L0 171L0 162L0 162L0 152L0 152L0 143L0 143L0 133L0 133L0 124L0 124L0 114L0 114L0 105L0 105L0 95L0 95L0 86L0 86L0 76L0 76L0 67L0 67L0 57L0 57L0 48L0 48L0 38L0 38L0 29L0 29L0 19L0 19L0 10L0 10L0 0L0 0Z" fill="#68aa9b"></path><path d="M502 0L605 0L605 10L601 10L601 19L556 19L556 29L306 29L306 38L334 38L334 48L460 48L460 57L451 57L451 67L603 67L603 76L604 76L604 86L450 86L450 95L450 95L450 105L308 105L308 114L271 114L271 124L532 124L532 133L591 133L591 143L397 143L397 152L532 152L532 162L239 162L239 171L335 171L335 181L447 181L447 190L279 190L279 200L0 200L0 190L0 190L0 181L0 181L0 171L0 171L0 162L0 162L0 152L0 152L0 143L0 143L0 133L0 133L0 124L0 124L0 114L0 114L0 105L0 105L0 95L0 95L0 86L0 86L0 76L0 76L0 67L0 67L0 57L0 57L0 48L0 48L0 38L0 38L0 29L0 29L0 19L0 19L0 10L0 10L0 0L0 0Z" fill="#61a294"></path><path d="M176 0L245 0L245 10L176 10L176 19L227 19L227 29L524 29L524 38L531 38L531 48L372 48L372 57L424 57L424 67L288 67L288 76L390 76L390 86L500 86L500 95L350 95L350 105L456 105L456 114L384 114L384 124L442 124L442 133L344 133L344 143L485 143L485 152L269 152L269 162L478 162L478 171L228 171L228 181L328 181L328 190L424 190L424 200L0 200L0 190L0 190L0 181L0 181L0 171L0 171L0 162L0 162L0 152L0 152L0 143L0 143L0 133L0 133L0 124L0 124L0 114L0 114L0 105L0 105L0 95L0 95L0 86L0 86L0 76L0 76L0 67L0 67L0 57L0 57L0 48L0 48L0 38L0 38L0 29L0 29L0 19L0 19L0 10L0 10L0 0L0 0Z" fill="#5a9a8c"></path><path d="M425 0L485 0L485 10L151 10L151 19L199 19L199 29L201 29L201 38L372 38L372 48L171 48L171 57L155 57L155 67L304 67L304 76L214 76L214 86L232 86L232 95L371 95L371 105L323 105L323 114L382 114L382 124L204 124L204 133L466 133L466 143L322 143L322 152L199 152L199 162L237 162L237 171L420 171L420 181L406 181L406 190L205 190L205 200L0 200L0 190L0 190L0 181L0 181L0 171L0 171L0 162L0 162L0 152L0 152L0 143L0 143L0 133L0 133L0 124L0 124L0 114L0 114L0 105L0 105L0 95L0 95L0 86L0 86L0 76L0 76L0 67L0 67L0 57L0 57L0 48L0 48L0 38L0 38L0 29L0 29L0 19L0 19L0 10L0 10L0 0L0 0Z" fill="#549284"></path><path d="M181 0L315 0L315 10L186 10L186 19L365 19L365 29L119 29L119 38L145 38L145 48L351 48L351 57L285 57L285 67L251 67L251 76L342 76L342 86L366 86L366 95L165 95L165 105L399 105L399 114L302 114L302 124L290 124L290 133L169 133L169 143L350 143L350 152L203 152L203 162L246 162L246 171L372 171L372 181L149 181L149 190L294 190L294 200L0 200L0 190L0 190L0 181L0 181L0 171L0 171L0 162L0 162L0 152L0 152L0 143L0 143L0 133L0 133L0 124L0 124L0 114L0 114L0 105L0 105L0 95L0 95L0 86L0 86L0 76L0 76L0 67L0 67L0 57L0 57L0 48L0 48L0 38L0 38L0 29L0 29L0 19L0 19L0 10L0 10L0 0L0 0Z" fill="#4d8b7d"></path><path d="M164 0L98 0L98 10L241 10L241 19L206 19L206 29L284 29L284 38L264 38L264 48L113 48L113 57L263 57L263 67L113 67L113 76L211 76L211 86L182 86L182 95L183 95L183 105L147 105L147 114L161 114L161 124L124 124L124 133L197 133L197 143L283 143L283 152L184 152L184 162L215 162L215 171L137 171L137 181L249 181L249 190L90 190L90 200L0 200L0 190L0 190L0 181L0 181L0 171L0 171L0 162L0 162L0 152L0 152L0 143L0 143L0 133L0 133L0 124L0 124L0 114L0 114L0 105L0 105L0 95L0 95L0 86L0 86L0 76L0 76L0 67L0 67L0 57L0 57L0 48L0 48L0 38L0 38L0 29L0 29L0 19L0 19L0 10L0 10L0 0L0 0Z" fill="#468376"></path><path d="M184 0L82 0L82 10L156 10L156 19L85 19L85 29L105 29L105 38L255 38L255 48L160 48L160 57L193 57L193 67L124 67L124 76L169 76L169 86L187 86L187 95L153 95L153 105L225 105L225 114L263 114L263 124L169 124L169 133L133 133L133 143L190 143L190 152L110 152L110 162L207 162L207 171L179 171L179 181L122 181L122 190L258 190L258 200L0 200L0 190L0 190L0 181L0 181L0 171L0 171L0 162L0 162L0 152L0 152L0 143L0 143L0 133L0 133L0 124L0 124L0 114L0 114L0 105L0 105L0 95L0 95L0 86L0 86L0 76L0 76L0 67L0 67L0 57L0 57L0 48L0 48L0 38L0 38L0 29L0 29L0 19L0 19L0 10L0 10L0 0L0 0Z" fill="#3f7c6e"></path><path d="M202 0L117 0L117 10L129 10L129 19L79 19L79 29L108 29L108 38L101 38L101 48L133 48L133 57L198 57L198 67L65 67L65 76L165 76L165 86L117 86L117 95L150 95L150 105L187 105L187 114L103 114L103 124L202 124L202 133L34 133L34 143L105 143L105 152L203 152L203 162L145 162L145 171L75 171L75 181L75 181L75 190L150 190L150 200L0 200L0 190L0 190L0 181L0 181L0 171L0 171L0 162L0 162L0 152L0 152L0 143L0 143L0 133L0 133L0 124L0 124L0 114L0 114L0 105L0 105L0 95L0 95L0 86L0 86L0 76L0 76L0 67L0 67L0 57L0 57L0 48L0 48L0 38L0 38L0 29L0 29L0 19L0 19L0 10L0 10L0 0L0 0Z" fill="#397467"></path><path d="M67 0L78 0L78 10L87 10L87 19L53 19L53 29L134 29L134 38L121 38L121 48L74 48L74 57L92 57L92 67L120 67L120 76L55 76L55 86L27 86L27 95L106 95L106 105L115 105L115 114L17 114L17 124L127 124L127 133L47 133L47 143L127 143L127 152L27 152L27 162L87 162L87 171L95 171L95 181L17 181L17 190L66 190L66 200L0 200L0 190L0 190L0 181L0 181L0 171L0 171L0 162L0 162L0 152L0 152L0 143L0 143L0 133L0 133L0 124L0 124L0 114L0 114L0 105L0 105L0 95L0 95L0 86L0 86L0 76L0 76L0 67L0 67L0 57L0 57L0 48L0 48L0 38L0 38L0 29L0 29L0 19L0 19L0 10L0 10L0 0L0 0Z" fill="#326d60"></path></svg>