<svg id="visual" viewBox="0 0 960 100" width="960" height="100" xmlns="http://www.w3.org/2000/svg" xmlns:xlink="http://www.w3.org/1999/xlink" version="1.1"><rect x="0" y="0" width="960" height="100" fill="#81A097"></rect><path d="M0 79L11.5 72.2C23 65.3 46 51.7 68.8 50.3C91.7 49 114.3 60 137.2 65.7C160 71.3 183 71.7 205.8 66.3C228.7 61 251.3 50 274.2 43.5C297 37 320 35 342.8 33C365.7 31 388.3 29 411.2 28C434 27 457 27 480 33.8C503 40.7 526 54.3 548.8 61.7C571.7 69 594.3 70 617.2 67.8C640 65.7 663 60.3 685.8 53.5C708.7 46.7 731.3 38.3 754.2 42.7C777 47 800 64 822.8 68.8C845.7 73.7 868.3 66.3 891.2 65.8C914 65.3 937 71.7 948.5 74.8L960 78L960 101L948.5 101C937 101 914 101 891.2 101C868.3 101 845.7 101 822.8 101C800 101 777 101 754.2 101C731.3 101 708.7 101 685.8 101C663 101 640 101 617.2 101C594.3 101 571.7 101 548.8 101C526 101 503 101 480 101C457 101 434 101 411.2 101C388.3 101 365.7 101 342.8 101C320 101 297 101 274.2 101C251.3 101 228.7 101 205.8 101C183 101 160 101 137.2 101C114.3 101 91.7 101 68.8 101C46 101 23 101 11.5 101L0 101Z" fill="#c3cad2" stroke-linecap="round" stroke-linejoin="miter"></path></svg>