<svg id="visual" viewBox="0 0 960 100" width="960" height="100" xmlns="http://www.w3.org/2000/svg" xmlns:xlink="http://www.w3.org/1999/xlink" version="1.1"><rect x="0" y="0" width="960" height="100" fill="#81A097"></rect><path d="M0 46L11.5 49C23 52 46 58 68.8 60.2C91.7 62.3 114.3 60.7 137.2 59.3C160 58 183 57 205.8 53.3C228.7 49.7 251.3 43.3 274.2 40.7C297 38 320 39 342.8 41.3C365.7 43.7 388.3 47.3 411.2 50.3C434 53.3 457 55.7 480 56C503 56.3 526 54.7 548.8 55.3C571.7 56 594.3 59 617.2 61C640 63 663 64 685.8 62.5C708.7 61 731.3 57 754.2 57.2C777 57.3 800 61.7 822.8 59.8C845.7 58 868.3 50 891.2 46C914 42 937 42 948.5 42L960 42L960 101L948.5 101C937 101 914 101 891.2 101C868.3 101 845.7 101 822.8 101C800 101 777 101 754.2 101C731.3 101 708.7 101 685.8 101C663 101 640 101 617.2 101C594.3 101 571.7 101 548.8 101C526 101 503 101 480 101C457 101 434 101 411.2 101C388.3 101 365.7 101 342.8 101C320 101 297 101 274.2 101C251.3 101 228.7 101 205.8 101C183 101 160 101 137.2 101C114.3 101 91.7 101 68.8 101C46 101 23 101 11.5 101L0 101Z" fill="#c3cad2" stroke-linecap="round" stroke-linejoin="miter"></path></svg>